<?xml version="1.0" encoding="UTF-8" standalone="no"?>
<svg
   xmlns:dc="http://purl.org/dc/elements/1.1/"
   xmlns:cc="http://creativecommons.org/ns#"
   xmlns:rdf="http://www.w3.org/1999/02/22-rdf-syntax-ns#"
   xmlns:svg="http://www.w3.org/2000/svg"
   xmlns="http://www.w3.org/2000/svg"
   xmlns:sodipodi="http://sodipodi.sourceforge.net/DTD/sodipodi-0.dtd"
   xmlns:inkscape="http://www.inkscape.org/namespaces/inkscape"
   width="99.029755mm"
   height="97.139877mm"
   viewBox="0 0 99.029755 97.139878"
   version="1.1"
   id="svg8"
   inkscape:version="1.0.2-2 (e86c870879, 2021-01-15)"
   sodipodi:docname="favicon.svg">
  <defs
     id="defs2" />
  <sodipodi:namedview
     id="base"
     pagecolor="#ffffff"
     bordercolor="#666666"
     borderopacity="1.0"
     inkscape:pageopacity="0.0"
     inkscape:pageshadow="2"
     inkscape:zoom="0.98994949"
     inkscape:cx="194.93069"
     inkscape:cy="148.17578"
     inkscape:document-units="mm"
     inkscape:current-layer="layer1"
     inkscape:document-rotation="0"
     showgrid="false"
     inkscape:window-width="1280"
     inkscape:window-height="961"
     inkscape:window-x="-8"
     inkscape:window-y="-8"
     inkscape:window-maximized="1"
     fit-margin-top="0"
     fit-margin-left="0"
     fit-margin-right="0"
     fit-margin-bottom="0" />
  <metadata
     id="metadata5">
    <rdf:RDF>
      <cc:Work
         rdf:about="">
        <dc:format>image/svg+xml</dc:format>
        <dc:type
           rdf:resource="http://purl.org/dc/dcmitype/StillImage" />
        <dc:title></dc:title>
      </cc:Work>
    </rdf:RDF>
  </metadata>
  <g
     inkscape:label="Layer 1"
     inkscape:groupmode="layer"
     id="layer1"
     transform="translate(-64.82373,-83.748428)">
    <rect
       style="fill:#ffffff;fill-opacity:1;stroke-width:0.665001"
       id="rect875"
       width="99.029755"
       height="97.139877"
       x="64.82373"
       y="83.748428"
       ry="16.252979" />
    <g
       id="g880"
       transform="translate(0.31539662,0.14494975)">
      <path
         style="fill:#000000;stroke-width:0.318535"
         d="m 107.77909,179.88342 c -3.40464,-0.43578 -7.15779,-1.40625 -10.917876,-2.82319 -10.93481,-4.12064 -20.309748,-12.56406 -25.666938,-23.11662 -6.962486,-13.71471 -6.983054,-29.68035 -0.05599,-43.43558 9.481766,-18.828193 30.371974,-29.299879 51.203934,-25.667079 7.46634,1.301992 15.56878,4.925341 21.31158,9.53036 11.83713,9.491899 18.4393,23.018839 18.43496,37.770659 -0.003,13.0332 -4.84149,24.63449 -14.15677,33.94975 -6.60266,6.60264 -13.70435,10.63208 -22.63332,12.84191 -5.05672,1.25148 -12.15532,1.63632 -17.51953,0.94979 z m 15.14048,-3.77708 c 23.03843,-4.69491 38.75788,-26.75243 35.52145,-49.84371 -0.29421,-2.09948 -0.56528,-3.84749 -0.6023,-3.88448 -0.0377,-0.0377 -0.60076,0.053 -1.25285,0.20022 -1.45383,0.32805 -3.22242,-0.0402 -4.40931,-0.9177 -0.49027,-0.36266 -1.15736,-0.65905 -1.48238,-0.65905 -0.63996,0 -1.66457,-1.78768 -1.66457,-2.9042 0,-0.35892 -0.29609,-1.81177 -0.65757,-3.2283 l -0.65761,-2.57544 1.01699,-1.93714 c 0.55932,-1.06539 1.20226,-2.46053 1.4287,-3.10022 0.40915,-1.15574 0.40112,-1.1759 -1.2641,-3.18538 -3.08694,-3.72496 -9.6305,-9.507851 -10.75852,-9.507851 -0.70918,0 -7.19532,2.632064 -9.12848,3.704338 -1.20724,0.669597 -3.09114,2.157523 -4.3818,3.460823 -2.45872,2.48263 -2.92543,3.58628 -2.35613,5.57131 0.38692,1.34917 0.17673,2.13007 -0.87547,3.25449 -0.91852,0.98145 -2.1944,1.35564 -3.58262,1.05072 -0.92928,-0.20377 -0.95561,-0.2614 -0.95561,-2.07803 0,-1.49893 -0.14723,-2.03925 -0.74474,-2.73395 l -0.74474,-0.86586 -2.46774,0.43849 c -2.19006,0.38913 -2.52073,0.54103 -2.93914,1.35012 -0.42215,0.81639 -0.41647,0.99557 0.0541,1.71409 0.44903,0.68533 0.68446,0.77266 1.61339,0.59839 0.61089,-0.11472 1.08768,-0.0729 1.08768,0.0951 0,0.68055 1.8788,2.2779 2.6792,2.2779 0.96908,0 1.87179,0.92258 2.10036,2.14654 0.10953,0.58609 0.5646,1.08751 1.42545,1.57041 0.84425,0.47353 1.48017,1.16501 1.9127,2.07976 0.76659,1.62119 1.53578,1.84914 3.0744,0.91114 1.48973,-0.90822 3.52231,-0.84542 5.69032,0.17564 0.96356,0.45389 2.40489,1.0231 3.20289,1.26495 1.14789,0.34764 1.59779,0.7009 2.15378,1.69008 0.72024,1.28148 1.89825,2.40377 4.12057,3.92559 0.85782,0.58746 1.634,1.57334 2.42742,3.08317 0.79986,1.52215 1.52674,2.44228 2.31335,2.92843 1.30929,0.8092 2.33073,2.74905 2.33419,4.43288 0.003,1.53321 -0.70904,4.41412 -1.91529,7.74776 -0.93807,2.59249 -1.16042,2.92327 -2.96779,4.41494 -1.18762,0.98017 -2.32849,2.28869 -2.90939,3.33698 -2.73876,4.94255 -7.53501,9.4908 -12.75306,12.09367 -3.63509,1.81327 -5.01796,2.03122 -6.48851,1.02272 -1.91732,-1.31499 -1.91453,-1.35673 0.40259,-6.02941 1.18519,-2.39005 2.39795,-5.38043 2.75389,-6.79043 0.66897,-2.64987 0.83507,-5.91255 0.34725,-6.81853 -0.1587,-0.29498 -1.567,-1.82923 -3.12908,-3.40917 -4.95635,-5.01311 -6.17484,-8.85692 -4.41972,-13.94202 0.95053,-2.75394 1.02685,-3.58721 0.35215,-3.8461 -0.33633,-0.12893 -0.4778,-0.65392 -0.4778,-1.7737 v -1.59035 l -1.51302,-0.45135 c -0.83218,-0.2483 -2.02701,-0.75575 -2.6552,-1.12775 -0.71079,-0.42101 -2.39495,-0.8625 -4.45951,-1.16914 -5.07132,-0.7532 -6.788659,-1.22788 -8.563936,-2.36705 -3.050091,-1.95722 -5.00846,-5.14845 -8.604822,-14.02159 -1.100627,-2.715506 -2.101608,-5.049701 -2.224389,-5.187095 -0.122644,-0.137394 -1.562576,1.009286 -3.199449,2.548262 -9.579363,9.006213 -14.440514,20.073943 -14.450183,32.899813 -0.0027,7.37175 1.37495,13.31845 4.621763,19.90855 4.689258,9.51779 13.747726,18.00161 22.994011,21.53523 l 1.85378,0.70847 1.331545,-0.64726 c 0.7324,-0.35591 1.99768,-1.1558 2.81177,-1.77741 1.27776,-0.97568 1.91437,-1.1992 4.65678,-1.6352 5.63608,-0.89607 7.03993,-0.61661 8.01881,1.59639 0.52125,1.17834 3.61884,4.90638 4.07667,4.90638 0.0781,0 1.55391,-0.28743 3.27879,-0.63914 z"
         id="path847" />
      <g
         id="g863"
         transform="matrix(-0.60728951,0.37943692,0.37943692,0.60728951,85.561126,-12.17081)"
         style="fill:#c51d28;fill-opacity:1">
        <path
           style="fill:#c51d28;fill-opacity:1;stroke-width:0.264583"
           d="m 89.945322,231.70233 c -0.86899,-0.52981 -1.63772,-1.87989 -1.63772,-2.87625 0,-1.138 6.33195,-13.23358 9.27653,-17.72045 1.62256,-2.47241 2.943748,-4.58408 2.935968,-4.69259 -0.0155,-0.21615 -9.149078,-2.98888 -9.897398,-3.00461 -0.42511,-0.009 -0.46302,0.40296 -0.46302,5.03049 0,5.56411 -0.15674,6.25845 -1.57884,6.99384 -0.42687,0.22075 -1.26004,0.40135 -1.85149,0.40135 -0.85536,0 -1.27754,-0.18521 -2.06366,-0.90536 l -0.9883,-0.90536 -0.0774,-7.82823 c -0.0681,-6.88345 -0.0239,-7.94113 0.36641,-8.76359 0.9657,-2.03506 3.01255,-2.19775 8.14602,-0.64745 1.92745,0.58208 3.6851,1.05833 3.90589,1.05833 0.34948,0 0.31984,-0.55657 -0.22898,-4.29948 -0.34674,-2.36472 -0.67831,-4.44404 -0.73682,-4.62072 -0.0805,-0.24315 -0.28616,-0.22747 -0.84594,0.0645 -0.97703,0.50963 -2.3994,0.47405 -3.40194,-0.0851 -0.44567,-0.24856 -3.45502,-2.27939 -6.68745,-4.51296 -3.80455,-2.6289 -6.01473,-4.32709 -6.26729,-4.8155 -1.29368,-2.50171 1.02815,-5.52738 3.67665,-4.7912 0.45539,0.12659 2.83171,1.62386 5.28072,3.32727 2.44901,1.70342 4.59213,3.15 4.7625,3.21464 0.17037,0.0646 0.70496,-0.46329 1.18799,-1.17316 0.728,-1.0699 0.84912,-1.44582 0.70808,-2.19767 -0.16982,-0.90519 -0.17768,-0.90949 -3.92782,-2.14959 l -3.75767,-1.24258 -5.88009,-5.90134 c -5.81515,-5.83615 -5.8801,-5.91376 -5.8801,-7.0255 0,-2.2037 1.27496,-3.47913 3.47786,-3.47913 1.1052,0 1.20654,0.0829 6.42929,5.2598 l 5.30639,5.2598 4.36562,1.43753 4.36563,1.43753 3.380088,-0.50569 c 3.12227,-0.46712 3.42972,-0.47317 4.0307,-0.0794 0.35783,0.23446 0.71266,0.69268 0.78852,1.01826 0.0759,0.32558 1.1374,7.31899 2.359,15.54092 1.95778,13.1768 2.18239,15.05874 1.89468,15.875 -0.17952,0.50932 -2.54404,4.28089 -5.25448,8.38126 -4.00772,6.0629 -5.497738,8.59374 -7.978418,13.55149 -2.49688,4.99014 -3.19255,6.16982 -3.83406,6.50156 -1.07467,0.55573 -2.36069,0.50639 -3.4056,-0.13068 z m 9.03345,-63.74703 c -1.3727,-0.32696 -3.11937,-1.4951 -3.88282,-2.59676 -2.54361,-3.67041 -1.02815,-8.67101 3.10631,-10.24997 1.44449,-0.55165 4.079888,-0.44086 5.368898,0.22571 1.10342,0.5706 2.37616,1.87675 2.97771,3.05589 2.56022,5.01845 -2.07416,10.87418 -7.570098,9.56513 z"
           id="path865"
           sodipodi:nodetypes="sssscsssscccssssssscsssssscsssscccsscsssssssssssss" />
      </g>
    </g>
  </g>
</svg>
